<?xml version="1.0" encoding="utf-8"?>
<!-- Generator: Adobe Illustrator 17.0.0, SVG Export Plug-In . SVG Version: 6.00 Build 0)  -->
<!DOCTYPE svg PUBLIC "-//W3C//DTD SVG 1.1//EN" "http://www.w3.org/Graphics/SVG/1.1/DTD/svg11.dtd">
<svg version="1.1" id="Layer_1" xmlns="http://www.w3.org/2000/svg" xmlns:xlink="http://www.w3.org/1999/xlink" x="0px" y="0px"
	 width="277.029px" height="138.516px" viewBox="0 0 277.029 138.516" enable-background="new 0 0 277.029 138.516"
	 xml:space="preserve">
<g opacity="0.2">
	<g>
		<path fill="#F47521" d="M277.029,138.516C277.029,62.016,215.015,0,138.515,0C62.016,0,0,62.016,0,138.516H277.029z"/>
	</g>
</g>
<ellipse fill="#24408D" cx="121.968" cy="66.761" rx="4.063" ry="4.225"/>
<path fill="#24408D" d="M152.936,66.761c0,2.333-1.819,4.225-4.063,4.225c-2.245,0-4.063-1.892-4.063-4.225
	c0-2.333,1.818-4.225,4.063-4.225C151.117,62.536,152.936,64.428,152.936,66.761"/>
<path fill="#24408D" d="M179.839,66.761c0,2.333-1.819,4.225-4.063,4.225c-2.244,0-4.063-1.892-4.063-4.225
	c0-2.333,1.819-4.225,4.063-4.225C178.02,62.536,179.839,64.428,179.839,66.761"/>
<path fill="#24408D" d="M206.742,66.761c0,2.333-1.818,4.225-4.062,4.225c-2.245,0-4.064-1.892-4.064-4.225
	c0-2.333,1.819-4.225,4.064-4.225C204.924,62.536,206.742,64.428,206.742,66.761"/>
<path fill="#24408D" d="M233.647,66.761c0,2.333-1.819,4.225-4.063,4.225c-2.245,0-4.064-1.892-4.064-4.225
	c0-2.333,1.819-4.225,4.064-4.225C231.828,62.536,233.647,64.428,233.647,66.761"/>
<path fill="#24408D" d="M260.55,66.761c0,2.333-1.819,4.225-4.063,4.225c-2.244,0-4.063-1.892-4.063-4.225
	c0-2.333,1.819-4.225,4.063-4.225C258.731,62.536,260.55,64.428,260.55,66.761"/>
<path fill="#24408D" d="M139.662,88.906c0,2.333-1.819,4.225-4.063,4.225c-2.245,0-4.063-1.892-4.063-4.225
	c0-2.333,1.818-4.225,4.063-4.225C137.843,84.682,139.662,86.574,139.662,88.906"/>
<path fill="#24408D" d="M166.566,88.906c0,2.333-1.819,4.225-4.062,4.225c-2.245,0-4.064-1.892-4.064-4.225
	c0-2.333,1.819-4.225,4.064-4.225C164.746,84.682,166.566,86.574,166.566,88.906"/>
<ellipse fill="#24408D" cx="189.406" cy="88.906" rx="4.064" ry="4.225"/>
<path fill="#24408D" d="M220.373,88.906c0,2.333-1.819,4.225-4.063,4.225c-2.245,0-4.063-1.892-4.063-4.225
	c0-2.333,1.818-4.225,4.063-4.225C218.554,84.682,220.373,86.574,220.373,88.906"/>
<path fill="#24408D" d="M247.276,88.906c0,2.333-1.819,4.225-4.063,4.225c-2.244,0-4.063-1.892-4.063-4.225
	c0-2.333,1.819-4.225,4.063-4.225C245.457,84.682,247.276,86.574,247.276,88.906"/>
<path fill="#24408D" d="M274.18,88.906c0,2.333-1.818,4.225-4.062,4.225c-2.245,0-4.064-1.892-4.064-4.225
	c0-2.333,1.819-4.225,4.064-4.225C272.362,84.682,274.18,86.574,274.18,88.906"/>
</svg>
