<?xml version="1.0" encoding="utf-8"?>
<!-- Generator: Adobe Illustrator 17.0.0, SVG Export Plug-In . SVG Version: 6.00 Build 0)  -->
<!DOCTYPE svg PUBLIC "-//W3C//DTD SVG 1.1//EN" "http://www.w3.org/Graphics/SVG/1.1/DTD/svg11.dtd">
<svg version="1.1" id="Layer_1" xmlns="http://www.w3.org/2000/svg" xmlns:xlink="http://www.w3.org/1999/xlink" x="0px" y="0px"
	 width="755.596px" height="396.874px" viewBox="0 0 755.596 396.874" enable-background="new 0 0 755.596 396.874"
	 xml:space="preserve">
<path fill="none" stroke="#FFFFFF" stroke-width="2" stroke-miterlimit="10" d="M754.635,447.34c0,0-70.179-244.025-225.381-215.962
	C374.051,259.444,353.807,58.704,257.987,13.515C162.165-31.676,21.89,46.727,46.101,229.136
	C67.695,391.82-16.206,397.3-16.206,397.3"/>
<path fill="none" stroke="#FFFFFF" stroke-width="2" stroke-miterlimit="10" d="M86.589,498.624c0,0,52.634-145.341,33.739-289.954
	c-18.893-144.613,66.049-161.524,99.87-144.613c70.178,35.089,83.674,222.682,197.039,234.829
	c85.22,9.131,199.74-63.431,260.471,101.218"/>
<path fill="none" stroke="#FFFFFF" stroke-width="2" stroke-miterlimit="10" d="M143.271,433.843c0,0-18.955-148.559,64.78-122.04
	C304.031,342.2,302.523,413.6,423.985,346.12c43.202-24.001,217.284-31.04,182.194,101.22"/>
</svg>
