<?xml version="1.0" encoding="utf-8"?>
<!-- Generator: Adobe Illustrator 17.0.0, SVG Export Plug-In . SVG Version: 6.00 Build 0)  -->
<!DOCTYPE svg PUBLIC "-//W3C//DTD SVG 1.1//EN" "http://www.w3.org/Graphics/SVG/1.1/DTD/svg11.dtd">
<svg version="1.1" id="Layer_1" xmlns="http://www.w3.org/2000/svg" xmlns:xlink="http://www.w3.org/1999/xlink" x="0px" y="0px"
	 width="469.024px" height="244.149px" viewBox="0 0 469.024 244.149" enable-background="new 0 0 469.024 244.149"
	 xml:space="preserve">
<path fill="none" stroke="#FFFFFF" stroke-width="2" stroke-miterlimit="10" d="M0.133,0c42.472,5.686,71.39,39.595,84.251,73.58
	c12.861,33.984,14.765,70.457,29.646,103.873c14.883,33.415,48.691,65.283,91.711,65.692c26.607,0.251,51.299-11.607,71.577-25.869
	c20.277-14.262,37.698-31.25,58.972-44.479c21.275-13.229,48.094-22.646,74.216-18.451c23.461,3.765,42.489,17.756,58.518,32.428"/>
<path fill="none" stroke="#FFFFFF" stroke-width="2" stroke-miterlimit="10" d="M537.788,156.654
	c-1.429-4.321-5.09-8.481-15.965-11.573c-11.572-3.291-28.706-17.728-33.128-22.353c-16.633-17.394-53.758-38.224-61.472-39.979
	c-20.748-4.723-37.501,3.699-52.572,13.069c-15.07,9.371-27.41,21.405-41.774,31.509c-14.363,10.102-31.855,18.502-50.702,18.323
	c-30.474-0.289-54.422-22.862-64.964-46.532c-10.542-23.673-11.891-49.507-21.001-73.58c-9.11-24.074-29.595-48.096-59.68-52.121"/>
</svg>
