<?xml version="1.0" encoding="UTF-8" standalone="no"?>
<!-- Created with Inkscape (http://www.inkscape.org/) -->

<svg
   xmlns:dc="http://purl.org/dc/elements/1.1/"
   xmlns:cc="http://creativecommons.org/ns#"
   xmlns:rdf="http://www.w3.org/1999/02/22-rdf-syntax-ns#"
   xmlns:svg="http://www.w3.org/2000/svg"
   xmlns="http://www.w3.org/2000/svg"
   xmlns:sodipodi="http://sodipodi.sourceforge.net/DTD/sodipodi-0.dtd"
   xmlns:inkscape="http://www.inkscape.org/namespaces/inkscape"
   width="7.7605495mm"
   height="64.758141mm"
   viewBox="0 0 7.7605495 64.758141"
   version="1.1"
   id="svg1042"
   inkscape:version="0.92.3 (2405546, 2018-03-11)"
   sodipodi:docname="line-balls.svg">
  <defs
     id="defs1036" />
  <sodipodi:namedview
     id="base"
     pagecolor="#ffffff"
     bordercolor="#666666"
     borderopacity="1.0"
     inkscape:pageopacity="0.0"
     inkscape:pageshadow="2"
     inkscape:zoom="0.35"
     inkscape:cx="-483.90583"
     inkscape:cy="122.37759"
     inkscape:document-units="mm"
     inkscape:current-layer="layer1"
     showgrid="false"
     fit-margin-top="0"
     fit-margin-left="0"
     fit-margin-right="0"
     fit-margin-bottom="0"
     inkscape:window-width="1920"
     inkscape:window-height="1052"
     inkscape:window-x="0"
     inkscape:window-y="0"
     inkscape:window-maximized="1" />
  <metadata
     id="metadata1039">
    <rdf:RDF>
      <cc:Work
         rdf:about="">
        <dc:format>image/svg+xml</dc:format>
        <dc:type
           rdf:resource="http://purl.org/dc/dcmitype/StillImage" />
        <dc:title></dc:title>
      </cc:Work>
    </rdf:RDF>
  </metadata>
  <g
     inkscape:label="Layer 1"
     inkscape:groupmode="layer"
     id="layer1"
     transform="translate(-101.95306,-116.45426)">
    <path
       inkscape:connector-curvature="0"
       style="fill:#374fa2;stroke-width:0.26458332"
       d="m 108.69493,118.67599 c -0.55827,-0.004 -1.00726,-0.50456 -1.00303,-1.11812 0.004,-0.61331 0.46037,-1.10781 1.01864,-1.10358 0.55828,0.004 1.00727,0.50429 1.00304,1.11786 -0.004,0.61357 -0.46037,1.10781 -1.01865,1.10384"
       id="path162" />
    <path
       inkscape:connector-curvature="0"
       style="fill:#374fa2;stroke-width:0.26458332"
       d="m 108.64308,126.03168 c -0.55827,-0.004 -1.00727,-0.5043 -1.00304,-1.11787 0.005,-0.61357 0.46038,-1.10781 1.01865,-1.10384 0.55827,0.004 1.00727,0.5043 1.00303,1.11813 -0.005,0.6133 -0.46037,1.10754 -1.01864,1.10358"
       id="path164" />
    <path
       inkscape:connector-curvature="0"
       style="fill:#374fa2;stroke-width:0.26458332"
       d="m 108.59148,133.38762 c -0.55827,-0.004 -1.00727,-0.50456 -1.00303,-1.11813 0.005,-0.6133 0.46037,-1.10754 1.01864,-1.10357 0.55801,0.004 1.00727,0.50429 1.00304,1.11786 -0.004,0.61357 -0.46064,1.10781 -1.01865,1.10384"
       id="path166" />
    <path
       inkscape:connector-curvature="0"
       style="fill:#374fa2;stroke-width:0.26458332"
       d="m 108.53962,140.74357 c -0.55827,-0.004 -1.00726,-0.50456 -1.00303,-1.11813 0.004,-0.61331 0.46037,-1.10755 1.01864,-1.10358 0.55828,0.004 1.00727,0.5043 1.00304,1.11787 -0.004,0.61356 -0.46038,1.10781 -1.01865,1.10384"
       id="path168" />
    <path
       inkscape:connector-curvature="0"
       style="fill:#374fa2;stroke-width:0.26458332"
       d="m 108.48777,148.09951 c -0.55828,-0.004 -1.00727,-0.50456 -1.00304,-1.11813 0.005,-0.6133 0.46038,-1.10754 1.01865,-1.10357 0.55827,0.004 1.00726,0.50429 1.00303,1.11786 -0.005,0.61357 -0.46037,1.10781 -1.01864,1.10384"
       id="path170" />
    <path
       inkscape:connector-curvature="0"
       style="fill:#374fa2;stroke-width:0.26458332"
       d="m 108.43617,155.45519 c -0.55827,-0.004 -1.00727,-0.50456 -1.00303,-1.11812 0.005,-0.61331 0.46037,-1.10755 1.01864,-1.10358 0.55827,0.004 1.00727,0.50429 1.00304,1.11786 -0.004,0.61357 -0.46038,1.10781 -1.01865,1.10384"
       id="path172" />
    <path
       inkscape:connector-curvature="0"
       style="fill:#374fa2;stroke-width:0.26458332"
       d="m 108.38431,162.81114 c -0.55827,-0.004 -1.00727,-0.50456 -1.00303,-1.11813 0.004,-0.6133 0.46037,-1.10781 1.01864,-1.10358 0.55827,0.004 1.00727,0.5043 1.00304,1.11787 -0.004,0.61357 -0.46038,1.10781 -1.01865,1.10384"
       id="path174" />
    <path
       inkscape:connector-curvature="0"
       style="fill:#374fa2;stroke-width:0.26458332"
       d="m 108.33246,170.16709 c -0.55801,-0.004 -1.00727,-0.50456 -1.00304,-1.11813 0.005,-0.61331 0.46064,-1.10781 1.01891,-1.10358 0.55801,0.004 1.007,0.5043 1.00277,1.11786 -0.005,0.61357 -0.46037,1.10781 -1.01864,1.10385"
       id="path176" />
    <path
       inkscape:connector-curvature="0"
       style="fill:#374fa2;stroke-width:0.26458332"
       d="m 108.28086,177.52303 c -0.55827,-0.004 -1.00727,-0.50456 -1.00303,-1.11813 0.005,-0.61357 0.46037,-1.10781 1.01864,-1.10357 0.55827,0.004 1.00727,0.50429 1.00304,1.11786 -0.004,0.61357 -0.46038,1.10781 -1.01865,1.10384"
       id="path178" />
    <path
       inkscape:connector-curvature="0"
       style="fill:#374fa2;stroke-width:0.26458332"
       d="m 103.37019,122.36534 c -0.55827,-0.004 -1.00726,-0.50456 -1.00303,-1.11812 0.005,-0.61331 0.46037,-1.10781 1.01865,-1.10358 0.55827,0.004 1.00726,0.50429 1.00303,1.11786 -0.005,0.61384 -0.46037,1.10781 -1.01865,1.10384"
       id="path180" />
    <path
       inkscape:connector-curvature="0"
       style="fill:#374fa2;stroke-width:0.26458332"
       d="m 103.31834,129.72129 c -0.55801,-0.004 -1.00727,-0.50456 -1.00304,-1.11813 0.005,-0.6133 0.46064,-1.10781 1.01865,-1.10358 0.55827,0.004 1.00727,0.5043 1.00303,1.11787 -0.004,0.61357 -0.46037,1.10781 -1.01864,1.10384"
       id="path182" />
    <path
       inkscape:connector-curvature="0"
       style="fill:#374fa2;stroke-width:0.26458332"
       d="m 103.26674,137.07724 c -0.55827,-0.004 -1.00727,-0.50456 -1.00303,-1.11813 0.004,-0.61357 0.46037,-1.10781 1.01864,-1.10358 0.55827,0.004 1.00727,0.5043 1.00304,1.11786 -0.005,0.61357 -0.46038,1.10782 -1.01865,1.10385"
       id="path184" />
    <path
       inkscape:connector-curvature="0"
       style="fill:#374fa2;stroke-width:0.26458332"
       d="m 103.21488,144.43292 c -0.55827,-0.004 -1.00726,-0.5043 -1.00303,-1.11813 0.005,-0.61331 0.46037,-1.10755 1.01864,-1.10358 0.55828,0.004 1.00727,0.5043 1.00304,1.11787 -0.005,0.61356 -0.46037,1.10781 -1.01865,1.10384"
       id="path186" />
    <path
       inkscape:connector-curvature="0"
       style="fill:#374fa2;stroke-width:0.26458332"
       d="m 103.16303,151.78886 c -0.55801,-0.004 -1.00727,-0.50456 -1.00304,-1.11813 0.005,-0.6133 0.46064,-1.10754 1.01865,-1.10357 0.55827,0.004 1.00727,0.50429 1.00303,1.11786 -0.004,0.61357 -0.46037,1.10781 -1.01864,1.10384"
       id="path188" />
    <path
       inkscape:connector-curvature="0"
       style="fill:#374fa2;stroke-width:0.26458332"
       d="m 103.11143,159.14481 c -0.55827,-0.004 -1.00727,-0.50456 -1.00303,-1.11813 0.004,-0.6133 0.46037,-1.10755 1.01864,-1.10358 0.55827,0.004 1.00727,0.5043 1.00304,1.11787 -0.005,0.61357 -0.46038,1.10781 -1.01865,1.10384"
       id="path190" />
    <path
       inkscape:connector-curvature="0"
       style="fill:#374fa2;stroke-width:0.26458332"
       d="m 103.05957,166.50049 c -0.55827,-0.004 -1.00726,-0.50456 -1.00303,-1.11813 0.005,-0.6133 0.46037,-1.10754 1.01864,-1.10358 0.55828,0.004 1.00727,0.5043 1.00304,1.11787 -0.005,0.61383 -0.46038,1.10781 -1.01865,1.10384"
       id="path192" />
    <path
       inkscape:connector-curvature="0"
       style="fill:#374fa2;stroke-width:0.26458332"
       d="m 103.00798,173.85644 c -0.55827,-0.004 -1.00727,-0.50456 -1.00304,-1.11813 0.004,-0.61331 0.46038,-1.10781 1.01865,-1.10358 0.55801,0.004 1.00727,0.5043 1.00304,1.11786 -0.004,0.61357 -0.46064,1.10781 -1.01865,1.10385"
       id="path194" />
    <path
       inkscape:connector-curvature="0"
       style="fill:#374fa2;stroke-width:0.26458332"
       d="m 102.95612,181.21238 c -0.55827,-0.004 -1.00727,-0.50456 -1.00303,-1.11813 0.004,-0.6133 0.46037,-1.10781 1.01864,-1.10357 0.55827,0.004 1.00727,0.50429 1.00304,1.11786 -0.005,0.61357 -0.46038,1.10781 -1.01865,1.10384"
       id="path196" />
  </g>
</svg>
